<svg width="56" height="37" viewBox="0 0 56 37" fill="none" xmlns="http://www.w3.org/2000/svg">
<path d="M8.72773 37H3.47773C2.3444 37 1.5944 36.8167 1.22773 36.45C0.894401 36.0833 0.727734 35.3167 0.727734 34.15V2.85C0.727734 2.25 0.894401 1.76667 1.22773 1.4C1.56107 1.03333 1.9944 0.849998 2.52773 0.849998H8.72773V37ZM10.7277 0.849998H17.0777C20.2444 0.849998 22.3444 1.6 23.3777 3.1C24.4444 4.56667 24.9777 7.53333 24.9777 12C24.9777 14.9667 24.6444 17.2833 23.9777 18.95C23.3444 20.6167 22.4944 21.7333 21.4277 22.3C20.3611 22.8333 18.9111 23.1 17.0777 23.1H10.7277V18.35H14.4277C15.2944 18.35 15.8444 18.2333 16.0777 18C16.3444 17.7667 16.4777 17.4 16.4777 16.9V7.1C16.4777 6.56667 16.3444 6.18333 16.0777 5.95C15.8444 5.71667 15.2944 5.6 14.4277 5.6H10.7277V0.849998ZM38.4211 0.899997V15.25C38.4211 15.7833 38.5378 16.1667 38.7711 16.4C39.0378 16.6333 39.6044 16.75 40.4711 16.75H44.1711V21.5H37.8211C35.9211 21.5 34.3878 21.3 33.2211 20.9C32.0878 20.5 31.2378 19.8 30.6711 18.8C30.1378 17.7667 29.7878 16.6667 29.6211 15.5C29.4878 14.3333 29.4211 12.7667 29.4211 10.8C29.4211 8.8 29.4878 7.28333 29.6211 6.25C29.7878 5.21667 30.1378 4.25 30.6711 3.35C31.2378 2.45 32.0878 1.81666 33.2211 1.45C34.3878 1.08333 35.9211 0.899997 37.8211 0.899997H38.4211ZM46.1711 16.75H46.7711C48.2044 16.75 49.3044 16.7833 50.0711 16.85C50.8711 16.8833 51.6378 17.0333 52.3711 17.3C53.1044 17.5333 53.6044 17.8167 53.8711 18.15C54.1711 18.4833 54.4378 19.0667 54.6711 19.9C54.9378 20.7 55.0878 21.5667 55.1211 22.5C55.1544 23.4333 55.1711 24.7667 55.1711 26.5C55.1711 28.2333 55.1544 29.6167 55.1211 30.65C55.0878 31.65 54.9378 32.6167 54.6711 33.55C54.4378 34.45 54.1711 35.0833 53.8711 35.45C53.6044 35.8167 53.1044 36.15 52.3711 36.45C51.6378 36.7167 50.8711 36.8833 50.0711 36.95C49.3044 36.9833 48.2044 37 46.7711 37H46.1711V16.75ZM30.1211 25.85H36.4211C36.8878 25.85 37.1711 25.9167 37.2711 26.05C37.3711 26.1833 37.4211 26.4667 37.4211 26.9V30.8C37.4211 31.3333 37.4878 31.7167 37.6211 31.95C37.7878 32.15 38.1711 32.25 38.7711 32.25H44.1711V37H36.8211C34.3878 37 32.5378 36.5833 31.2711 35.75C30.0378 34.9167 29.4211 33.4667 29.4211 31.4V26.9C29.4211 26.2 29.6544 25.85 30.1211 25.85ZM40.4211 0.849998H46.7711C49.2044 0.849998 51.0378 1.26666 52.2711 2.1C53.5378 2.93333 54.1711 4.38333 54.1711 6.45V10.95C54.1711 11.65 53.9378 12 53.4711 12H47.1711C46.7044 12 46.4211 11.9333 46.3211 11.8C46.2211 11.6667 46.1711 11.3833 46.1711 10.95V7.05C46.1711 6.51667 46.0878 6.15 45.9211 5.95C45.7878 5.71667 45.4211 5.6 44.8211 5.6H40.4211V0.849998Z" fill="#5A84EE"/>
</svg>
